<mxfile host="app.diagrams.net" agent="Mozilla/5.0 (Windows NT 10.0; Win64; x64) AppleWebKit/537.36 (KHTML, like Gecko) Chrome/140.0.0.0 Safari/537.36 Edg/140.0.0.0" version="28.2.5">
  <diagram name="Page-1" id="iTWP-FHphD7SNS_yKXa_">
    <mxGraphModel dx="893" dy="1847" grid="1" gridSize="10" guides="1" tooltips="1" connect="1" arrows="1" fold="1" page="1" pageScale="1" pageWidth="850" pageHeight="1100" math="0" shadow="0">
      <root>
        <mxCell id="0" />
        <mxCell id="1" parent="0" />
        <mxCell id="65kRJj1gInvo-DGe0kp--1" value="" style="rounded=0;whiteSpace=wrap;html=1;" parent="1" vertex="1">
          <mxGeometry x="270" y="-930" width="610" height="510" as="geometry" />
        </mxCell>
        <mxCell id="65kRJj1gInvo-DGe0kp--2" value="" style="rounded=0;whiteSpace=wrap;html=1;direction=south;" parent="1" vertex="1">
          <mxGeometry x="320" y="-730" width="190" height="290" as="geometry" />
        </mxCell>
        <mxCell id="65kRJj1gInvo-DGe0kp--4" value="" style="strokeWidth=2;html=1;shape=mxgraph.flowchart.annotation_2;align=left;labelPosition=right;pointerEvents=1;direction=south;" parent="1" vertex="1">
          <mxGeometry x="390" y="-840" width="330" height="110" as="geometry" />
        </mxCell>
        <mxCell id="8Rslptf_6uAamv9jot8S-7" value="Elastic Load Balancing" style="sketch=0;outlineConnect=0;fontColor=#232F3E;gradientColor=none;strokeColor=#ffffff;fillColor=#232F3E;dashed=0;verticalLabelPosition=middle;verticalAlign=bottom;align=center;html=1;whiteSpace=wrap;fontSize=10;fontStyle=1;spacing=3;shape=mxgraph.aws4.productIcon;prIcon=mxgraph.aws4.elastic_load_balancing;direction=north;" vertex="1" parent="1">
          <mxGeometry x="510" y="-910" width="110" height="80" as="geometry" />
        </mxCell>
        <mxCell id="8Rslptf_6uAamv9jot8S-8" value="Amazon EC2" style="sketch=0;outlineConnect=0;fontColor=#232F3E;gradientColor=none;strokeColor=#ffffff;fillColor=#232F3E;dashed=0;verticalLabelPosition=middle;verticalAlign=bottom;align=center;html=1;whiteSpace=wrap;fontSize=10;fontStyle=1;spacing=3;shape=mxgraph.aws4.productIcon;prIcon=mxgraph.aws4.ec2;" vertex="1" parent="1">
          <mxGeometry x="375" y="-670" width="80" height="100" as="geometry" />
        </mxCell>
        <mxCell id="8Rslptf_6uAamv9jot8S-69" value="" style="edgeStyle=none;curved=1;rounded=0;orthogonalLoop=1;jettySize=auto;html=1;fontSize=12;startSize=8;endSize=8;" edge="1" parent="1" target="8Rslptf_6uAamv9jot8S-8">
          <mxGeometry relative="1" as="geometry">
            <mxPoint x="540" y="-531.2903225806451" as="sourcePoint" />
          </mxGeometry>
        </mxCell>
        <mxCell id="8Rslptf_6uAamv9jot8S-14" value="" style="rounded=0;whiteSpace=wrap;html=1;direction=south;dashed=1;" vertex="1" parent="1">
          <mxGeometry x="630" y="-730" width="170" height="280" as="geometry" />
        </mxCell>
        <mxCell id="8Rslptf_6uAamv9jot8S-15" value="Amazon EC2" style="sketch=0;outlineConnect=0;fontColor=#232F3E;gradientColor=none;strokeColor=#ffffff;fillColor=#232F3E;dashed=0;verticalLabelPosition=middle;verticalAlign=bottom;align=center;html=1;whiteSpace=wrap;fontSize=10;fontStyle=1;spacing=3;shape=mxgraph.aws4.productIcon;prIcon=mxgraph.aws4.ec2;" vertex="1" parent="1">
          <mxGeometry x="670" y="-675" width="80" height="100" as="geometry" />
        </mxCell>
        <mxCell id="8Rslptf_6uAamv9jot8S-17" value="Region" style="text;strokeColor=none;align=center;fillColor=none;html=1;verticalAlign=middle;whiteSpace=wrap;rounded=0;fontSize=16;" vertex="1" parent="1">
          <mxGeometry x="740" y="-930" width="60" height="30" as="geometry" />
        </mxCell>
        <mxCell id="8Rslptf_6uAamv9jot8S-18" value="Availability&lt;div&gt;zone&lt;/div&gt;" style="text;strokeColor=none;align=center;fillColor=none;html=1;verticalAlign=middle;whiteSpace=wrap;rounded=0;fontSize=16;" vertex="1" parent="1">
          <mxGeometry x="730" y="-720" width="60" height="30" as="geometry" />
        </mxCell>
        <mxCell id="8Rslptf_6uAamv9jot8S-20" value="Availability&lt;div&gt;zone&lt;/div&gt;" style="text;strokeColor=none;align=center;fillColor=none;html=1;verticalAlign=middle;whiteSpace=wrap;rounded=0;fontSize=16;" vertex="1" parent="1">
          <mxGeometry x="440" y="-720" width="60" height="30" as="geometry" />
        </mxCell>
        <mxCell id="8Rslptf_6uAamv9jot8S-21" value="&lt;b&gt;Question1&lt;/b&gt;" style="text;strokeColor=none;align=center;fillColor=none;html=1;verticalAlign=middle;whiteSpace=wrap;rounded=0;fontSize=24;" vertex="1" parent="1">
          <mxGeometry x="90" y="-1040" width="60" height="30" as="geometry" />
        </mxCell>
        <mxCell id="8Rslptf_6uAamv9jot8S-22" value="&lt;b&gt;Question2&lt;/b&gt;&lt;div&gt;&lt;b&gt;&lt;br&gt;&lt;/b&gt;&lt;/div&gt;" style="text;strokeColor=none;align=center;fillColor=none;html=1;verticalAlign=middle;whiteSpace=wrap;rounded=0;fontSize=24;" vertex="1" parent="1">
          <mxGeometry x="31.64" y="50" width="100" height="30" as="geometry" />
        </mxCell>
        <mxCell id="8Rslptf_6uAamv9jot8S-43" value="" style="edgeStyle=none;curved=1;rounded=0;orthogonalLoop=1;jettySize=auto;html=1;fontSize=12;startSize=8;endSize=8;" edge="1" parent="1" source="8Rslptf_6uAamv9jot8S-25" target="8Rslptf_6uAamv9jot8S-42">
          <mxGeometry relative="1" as="geometry" />
        </mxCell>
        <mxCell id="8Rslptf_6uAamv9jot8S-45" value="" style="edgeStyle=none;curved=1;rounded=0;orthogonalLoop=1;jettySize=auto;html=1;fontSize=12;startSize=8;endSize=8;" edge="1" parent="1" source="8Rslptf_6uAamv9jot8S-25" target="8Rslptf_6uAamv9jot8S-31">
          <mxGeometry relative="1" as="geometry" />
        </mxCell>
        <mxCell id="8Rslptf_6uAamv9jot8S-46" value="" style="edgeStyle=none;curved=1;rounded=0;orthogonalLoop=1;jettySize=auto;html=1;fontSize=12;startSize=8;endSize=8;" edge="1" parent="1" source="8Rslptf_6uAamv9jot8S-25" target="8Rslptf_6uAamv9jot8S-26">
          <mxGeometry relative="1" as="geometry" />
        </mxCell>
        <mxCell id="8Rslptf_6uAamv9jot8S-25" value="Amazon Cloudfront" style="sketch=0;outlineConnect=0;fontColor=#232F3E;gradientColor=none;strokeColor=#ffffff;fillColor=#232F3E;dashed=0;verticalLabelPosition=middle;verticalAlign=bottom;align=center;html=1;whiteSpace=wrap;fontSize=10;fontStyle=1;spacing=3;shape=mxgraph.aws4.productIcon;prIcon=mxgraph.aws4.cloudfront;" vertex="1" parent="1">
          <mxGeometry x="535" y="120" width="150" height="170" as="geometry" />
        </mxCell>
        <mxCell id="8Rslptf_6uAamv9jot8S-47" value="" style="edgeStyle=none;curved=1;rounded=0;orthogonalLoop=1;jettySize=auto;html=1;fontSize=12;startSize=8;endSize=8;" edge="1" parent="1" source="8Rslptf_6uAamv9jot8S-26" target="8Rslptf_6uAamv9jot8S-38">
          <mxGeometry relative="1" as="geometry" />
        </mxCell>
        <mxCell id="8Rslptf_6uAamv9jot8S-48" value="" style="edgeStyle=none;curved=1;rounded=0;orthogonalLoop=1;jettySize=auto;html=1;fontSize=12;startSize=8;endSize=8;" edge="1" parent="1" source="8Rslptf_6uAamv9jot8S-26" target="8Rslptf_6uAamv9jot8S-38">
          <mxGeometry relative="1" as="geometry" />
        </mxCell>
        <mxCell id="8Rslptf_6uAamv9jot8S-49" value="" style="edgeStyle=none;curved=1;rounded=0;orthogonalLoop=1;jettySize=auto;html=1;fontSize=12;startSize=8;endSize=8;" edge="1" parent="1" source="8Rslptf_6uAamv9jot8S-26" target="8Rslptf_6uAamv9jot8S-38">
          <mxGeometry relative="1" as="geometry" />
        </mxCell>
        <mxCell id="8Rslptf_6uAamv9jot8S-26" value="Edge location - Asia" style="sketch=0;outlineConnect=0;fontColor=#232F3E;gradientColor=none;strokeColor=#232F3E;fillColor=#ffffff;dashed=0;verticalLabelPosition=bottom;verticalAlign=top;align=center;html=1;fontSize=12;fontStyle=0;aspect=fixed;shape=mxgraph.aws4.resourceIcon;resIcon=mxgraph.aws4.edge_location;" vertex="1" parent="1">
          <mxGeometry x="790" y="205" width="105" height="105" as="geometry" />
        </mxCell>
        <mxCell id="8Rslptf_6uAamv9jot8S-27" value="Amazon S3" style="sketch=0;outlineConnect=0;fontColor=#232F3E;gradientColor=none;strokeColor=#ffffff;fillColor=#232F3E;dashed=0;verticalLabelPosition=middle;verticalAlign=bottom;align=center;html=1;whiteSpace=wrap;fontSize=10;fontStyle=1;spacing=3;shape=mxgraph.aws4.productIcon;prIcon=mxgraph.aws4.s3;" vertex="1" parent="1">
          <mxGeometry x="555" y="420" width="130" height="150" as="geometry" />
        </mxCell>
        <mxCell id="8Rslptf_6uAamv9jot8S-30" value="" style="shape=mxgraph.networks2.icon;aspect=fixed;fillColor=#EDEDED;strokeColor=#000000;gradientColor=#5B6163;network2IconShadow=1;network2bgFillColor=none;labelPosition=center;verticalLabelPosition=bottom;align=center;verticalAlign=top;network2Icon=mxgraph.networks2.laptop;network2IconW=1;network2IconH=0.5734;" vertex="1" parent="1">
          <mxGeometry x="955" y="134.26999999999998" width="123.36" height="70.73" as="geometry" />
        </mxCell>
        <mxCell id="8Rslptf_6uAamv9jot8S-52" value="" style="edgeStyle=none;curved=1;rounded=0;orthogonalLoop=1;jettySize=auto;html=1;fontSize=12;startSize=8;endSize=8;" edge="1" parent="1" source="8Rslptf_6uAamv9jot8S-31" target="8Rslptf_6uAamv9jot8S-40">
          <mxGeometry relative="1" as="geometry" />
        </mxCell>
        <mxCell id="8Rslptf_6uAamv9jot8S-53" value="" style="edgeStyle=none;curved=1;rounded=0;orthogonalLoop=1;jettySize=auto;html=1;fontSize=12;startSize=8;endSize=8;" edge="1" parent="1" source="8Rslptf_6uAamv9jot8S-31" target="8Rslptf_6uAamv9jot8S-39">
          <mxGeometry relative="1" as="geometry" />
        </mxCell>
        <mxCell id="8Rslptf_6uAamv9jot8S-31" value="Edge location - Australia" style="sketch=0;outlineConnect=0;fontColor=#232F3E;gradientColor=none;strokeColor=#232F3E;fillColor=#ffffff;dashed=0;verticalLabelPosition=bottom;verticalAlign=top;align=center;html=1;fontSize=12;fontStyle=0;aspect=fixed;shape=mxgraph.aws4.resourceIcon;resIcon=mxgraph.aws4.edge_location;" vertex="1" parent="1">
          <mxGeometry x="325" y="210" width="125.73" height="125.73" as="geometry" />
        </mxCell>
        <mxCell id="8Rslptf_6uAamv9jot8S-38" value="" style="shape=mxgraph.networks2.icon;aspect=fixed;fillColor=#EDEDED;strokeColor=#000000;gradientColor=#5B6163;network2IconShadow=1;network2bgFillColor=none;labelPosition=center;verticalLabelPosition=bottom;align=center;verticalAlign=top;network2Icon=mxgraph.networks2.laptop;network2IconW=1;network2IconH=0.5734;" vertex="1" parent="1">
          <mxGeometry x="955" y="265" width="123.36" height="70.73" as="geometry" />
        </mxCell>
        <mxCell id="8Rslptf_6uAamv9jot8S-39" value="" style="shape=mxgraph.networks2.icon;aspect=fixed;fillColor=#EDEDED;strokeColor=#000000;gradientColor=#5B6163;network2IconShadow=1;network2bgFillColor=none;labelPosition=center;verticalLabelPosition=bottom;align=center;verticalAlign=top;network2Icon=mxgraph.networks2.laptop;network2IconW=1;network2IconH=0.5734;" vertex="1" parent="1">
          <mxGeometry x="151.64" y="169.64" width="123.36" height="70.73" as="geometry" />
        </mxCell>
        <mxCell id="8Rslptf_6uAamv9jot8S-40" value="" style="shape=mxgraph.networks2.icon;aspect=fixed;fillColor=#EDEDED;strokeColor=#000000;gradientColor=#5B6163;network2IconShadow=1;network2bgFillColor=none;labelPosition=center;verticalLabelPosition=bottom;align=center;verticalAlign=top;network2Icon=mxgraph.networks2.laptop;network2IconW=1;network2IconH=0.5734;" vertex="1" parent="1">
          <mxGeometry x="141.64" y="349.27" width="123.36" height="70.73" as="geometry" />
        </mxCell>
        <mxCell id="8Rslptf_6uAamv9jot8S-42" value="" style="html=1;shadow=0;dashed=0;align=center;verticalAlign=middle;shape=mxgraph.arrows2.arrow;dy=0.6;dx=40;notch=0;direction=south;fillStyle=solid;fillColor=#000000;" vertex="1" parent="1">
          <mxGeometry x="615" y="300" width="10" height="130" as="geometry" />
        </mxCell>
        <mxCell id="8Rslptf_6uAamv9jot8S-51" value="" style="edgeStyle=none;curved=1;rounded=0;orthogonalLoop=1;jettySize=auto;html=1;fontSize=12;startSize=8;endSize=8;entryX=-0.009;entryY=0.595;entryDx=0;entryDy=0;entryPerimeter=0;" edge="1" parent="1" source="8Rslptf_6uAamv9jot8S-26" target="8Rslptf_6uAamv9jot8S-30">
          <mxGeometry relative="1" as="geometry">
            <mxPoint x="935" y="270" as="sourcePoint" />
            <mxPoint x="995.0000000000001" y="285" as="targetPoint" />
          </mxGeometry>
        </mxCell>
        <mxCell id="8Rslptf_6uAamv9jot8S-54" value="&lt;b&gt;Question3&lt;/b&gt;" style="text;strokeColor=none;align=center;fillColor=none;html=1;verticalAlign=middle;whiteSpace=wrap;rounded=0;fontSize=24;" vertex="1" parent="1">
          <mxGeometry x="103.32" y="1130" width="100" height="30" as="geometry" />
        </mxCell>
        <mxCell id="8Rslptf_6uAamv9jot8S-56" value="" style="rounded=0;whiteSpace=wrap;html=1;" vertex="1" parent="1">
          <mxGeometry x="396.68" y="1280" width="610" height="510" as="geometry" />
        </mxCell>
        <mxCell id="8Rslptf_6uAamv9jot8S-57" value="" style="rounded=0;whiteSpace=wrap;html=1;direction=south;" vertex="1" parent="1">
          <mxGeometry x="446.68" y="1480" width="190" height="290" as="geometry" />
        </mxCell>
        <mxCell id="8Rslptf_6uAamv9jot8S-58" value="" style="strokeWidth=2;html=1;shape=mxgraph.flowchart.annotation_2;align=left;labelPosition=right;pointerEvents=1;direction=south;" vertex="1" parent="1">
          <mxGeometry x="516.6800000000001" y="1370" width="330" height="110" as="geometry" />
        </mxCell>
        <mxCell id="8Rslptf_6uAamv9jot8S-59" value="Elastic Load Balancing" style="sketch=0;outlineConnect=0;fontColor=#232F3E;gradientColor=none;strokeColor=#ffffff;fillColor=#232F3E;dashed=0;verticalLabelPosition=middle;verticalAlign=bottom;align=center;html=1;whiteSpace=wrap;fontSize=10;fontStyle=1;spacing=3;shape=mxgraph.aws4.productIcon;prIcon=mxgraph.aws4.elastic_load_balancing;direction=north;" vertex="1" parent="1">
          <mxGeometry x="636.6800000000001" y="1300" width="110" height="80" as="geometry" />
        </mxCell>
        <mxCell id="8Rslptf_6uAamv9jot8S-60" value="Amazon EC2" style="sketch=0;outlineConnect=0;fontColor=#232F3E;gradientColor=none;strokeColor=#ffffff;fillColor=#232F3E;dashed=0;verticalLabelPosition=middle;verticalAlign=bottom;align=center;html=1;whiteSpace=wrap;fontSize=10;fontStyle=1;spacing=3;shape=mxgraph.aws4.productIcon;prIcon=mxgraph.aws4.ec2;" vertex="1" parent="1">
          <mxGeometry x="501.68" y="1540" width="80" height="100" as="geometry" />
        </mxCell>
        <mxCell id="8Rslptf_6uAamv9jot8S-61" value="DB on&#xa;Instance" style="sketch=0;outlineConnect=0;fontColor=#232F3E;gradientColor=none;strokeColor=#232F3E;fillColor=#ffffff;dashed=0;verticalLabelPosition=bottom;verticalAlign=top;align=center;html=1;fontSize=12;fontStyle=0;aspect=fixed;shape=mxgraph.aws4.resourceIcon;resIcon=mxgraph.aws4.db_on_instance;" vertex="1" parent="1">
          <mxGeometry x="516.6800000000001" y="1650" width="60" height="60" as="geometry" />
        </mxCell>
        <mxCell id="8Rslptf_6uAamv9jot8S-62" value="" style="rounded=0;whiteSpace=wrap;html=1;direction=south;dashed=1;" vertex="1" parent="1">
          <mxGeometry x="756.6800000000001" y="1480" width="170" height="280" as="geometry" />
        </mxCell>
        <mxCell id="8Rslptf_6uAamv9jot8S-63" value="Amazon EC2" style="sketch=0;outlineConnect=0;fontColor=#232F3E;gradientColor=none;strokeColor=#ffffff;fillColor=#232F3E;dashed=0;verticalLabelPosition=middle;verticalAlign=bottom;align=center;html=1;whiteSpace=wrap;fontSize=10;fontStyle=1;spacing=3;shape=mxgraph.aws4.productIcon;prIcon=mxgraph.aws4.ec2;" vertex="1" parent="1">
          <mxGeometry x="796.6800000000001" y="1535" width="80" height="100" as="geometry" />
        </mxCell>
        <mxCell id="8Rslptf_6uAamv9jot8S-64" value="DB on&#xa;Instance" style="sketch=0;outlineConnect=0;fontColor=#232F3E;gradientColor=none;strokeColor=#232F3E;fillColor=#ffffff;dashed=0;verticalLabelPosition=bottom;verticalAlign=top;align=center;html=1;fontSize=12;fontStyle=0;aspect=fixed;shape=mxgraph.aws4.resourceIcon;resIcon=mxgraph.aws4.db_on_instance;" vertex="1" parent="1">
          <mxGeometry x="811.6800000000001" y="1645" width="60" height="60" as="geometry" />
        </mxCell>
        <mxCell id="8Rslptf_6uAamv9jot8S-65" value="Region" style="text;strokeColor=none;align=center;fillColor=none;html=1;verticalAlign=middle;whiteSpace=wrap;rounded=0;fontSize=16;" vertex="1" parent="1">
          <mxGeometry x="866.6800000000001" y="1280" width="60" height="30" as="geometry" />
        </mxCell>
        <mxCell id="8Rslptf_6uAamv9jot8S-66" value="Availability&lt;div&gt;zone&lt;/div&gt;" style="text;strokeColor=none;align=center;fillColor=none;html=1;verticalAlign=middle;whiteSpace=wrap;rounded=0;fontSize=16;" vertex="1" parent="1">
          <mxGeometry x="856.6800000000001" y="1490" width="60" height="30" as="geometry" />
        </mxCell>
        <mxCell id="8Rslptf_6uAamv9jot8S-67" value="Availability&lt;div&gt;zone&lt;/div&gt;" style="text;strokeColor=none;align=center;fillColor=none;html=1;verticalAlign=middle;whiteSpace=wrap;rounded=0;fontSize=16;" vertex="1" parent="1">
          <mxGeometry x="566.6800000000001" y="1490" width="60" height="30" as="geometry" />
        </mxCell>
        <mxCell id="8Rslptf_6uAamv9jot8S-68" value="" style="edgeStyle=none;curved=1;rounded=0;orthogonalLoop=1;jettySize=auto;html=1;fontSize=12;startSize=8;endSize=8;entryX=0;entryY=0.85;entryDx=0;entryDy=0;entryPerimeter=0;" edge="1" parent="1" target="8Rslptf_6uAamv9jot8S-15">
          <mxGeometry relative="1" as="geometry">
            <mxPoint x="600" y="-534" as="sourcePoint" />
          </mxGeometry>
        </mxCell>
        <mxCell id="8Rslptf_6uAamv9jot8S-71" value="Amazon RDS" style="sketch=0;outlineConnect=0;fontColor=#232F3E;gradientColor=none;strokeColor=#ffffff;fillColor=#232F3E;dashed=0;verticalLabelPosition=middle;verticalAlign=bottom;align=center;html=1;whiteSpace=wrap;fontSize=10;fontStyle=1;spacing=3;shape=mxgraph.aws4.productIcon;prIcon=mxgraph.aws4.rds;" vertex="1" parent="1">
          <mxGeometry x="529.5" y="-540" width="80" height="100" as="geometry" />
        </mxCell>
      </root>
    </mxGraphModel>
  </diagram>
</mxfile>
